<?xml version="1.0" encoding="UTF-8"?>
<!DOCTYPE svg PUBLIC "-//W3C//DTD SVG 1.1//EN" "http://www.w3.org/Graphics/SVG/1.1/DTD/svg11.dtd">
<svg xmlns="http://www.w3.org/2000/svg" version="1.1" width="200px" height="200px" style="shape-rendering:geometricPrecision; text-rendering:geometricPrecision; image-rendering:optimizeQuality; fill-rule:evenodd; clip-rule:evenodd" xmlns:xlink="http://www.w3.org/1999/xlink">
<g><path style="opacity:0.999" fill="#b5dcfc" d="M 97.5,0.5 C 127.166,6.60001 156.833,12.7667 186.5,19C 187.799,23.2457 188.466,27.7457 188.5,32.5C 188.342,54.6037 186.842,76.6037 184,98.5C 175.964,136.764 155.464,166.264 122.5,187C 114.833,190.833 107.167,194.667 99.5,198.5C 61.9266,183.76 35.4266,157.76 20,120.5C 17.218,113.039 15.218,105.372 14,97.5C 10.5902,71.1883 10.0902,45.0217 12.5,19C 41.0603,13.2569 69.3936,7.09022 97.5,0.5 Z"/></g>
<g><path style="opacity:1" fill="#334589" d="M 155.5,141.5 C 155.815,139.774 155.981,138.107 156,136.5C 154.111,138.483 152.778,140.816 152,143.5C 151.667,141.833 151.333,140.167 151,138.5C 147.854,139.942 144.854,139.609 142,137.5C 140.118,138.093 139.118,139.427 139,141.5C 137.748,139.999 136.748,138.332 136,136.5C 135.301,129.854 132.801,124.188 128.5,119.5C 125.978,112.954 123.311,106.454 120.5,100C 131.167,92 141.833,84 152.5,76C 139.838,75.5001 127.171,75.3334 114.5,75.5C 109.822,62.2964 104.655,49.2964 99,36.5C 94.3945,48.8186 89.8945,61.1519 85.5,73.5C 78.4444,71.5905 71.111,70.9238 63.5,71.5C 63.5,68.8333 63.5,66.1667 63.5,63.5C 52.8333,63.5 42.1667,63.5 31.5,63.5C 31.5,60.8333 31.5,58.1667 31.5,55.5C 29.5,55.5 27.5,55.5 25.5,55.5C 25.5,54.1667 25.5,52.8333 25.5,51.5C 27.5,51.5 29.5,51.5 31.5,51.5C 31.5,50.1667 31.5,48.8333 31.5,47.5C 30.1667,47.5 28.8333,47.5 27.5,47.5C 27.5,46.5 27.5,45.5 27.5,44.5C 25.7376,44.6427 24.0709,44.3094 22.5,43.5C 21.8281,44.9492 21.1614,46.2825 20.5,47.5C 20.1878,40.5778 20.5212,33.7445 21.5,27C 45.2011,22.158 68.8678,17.158 92.5,12C 96.8333,11.3333 101.167,11.3333 105.5,12C 129.877,17.0113 154.21,22.1779 178.5,27.5C 178.011,43.1644 177.511,58.8311 177,74.5C 176.064,94.9096 171.064,114.243 162,132.5C 160.301,135.921 158.135,138.921 155.5,141.5 Z"/></g>
<g><path style="opacity:1" fill="#b5ddfd" d="M 114.5,75.5 C 104.5,75.5 94.5,75.5 84.5,75.5C 84.8333,74.8333 85.1667,74.1667 85.5,73.5C 89.8945,61.1519 94.3945,48.8186 99,36.5C 104.655,49.2964 109.822,62.2964 114.5,75.5 Z"/></g>
<g><path style="opacity:1" fill="#334589" d="M 85.5,73.5 C 85.1667,74.1667 84.8333,74.8333 84.5,75.5C 71.8289,75.3334 59.1623,75.5001 46.5,76C 64.3385,90.1689 83.0051,103.169 102.5,115C 112.653,123.242 122.986,131.242 133.5,139C 134.332,139.688 134.998,139.521 135.5,138.5C 132.963,132.22 130.63,125.887 128.5,119.5C 132.801,124.188 135.301,129.854 136,136.5C 136.748,138.332 137.748,139.999 139,141.5C 139.118,139.427 140.118,138.093 142,137.5C 144.854,139.609 147.854,139.942 151,138.5C 151.333,140.167 151.667,141.833 152,143.5C 152.778,140.816 154.111,138.483 156,136.5C 155.981,138.107 155.815,139.774 155.5,141.5C 141.409,162.244 122.743,177.577 99.5,187.5C 57.2151,169.379 31.7151,137.712 23,92.5C 21.6016,77.5319 20.7683,62.5319 20.5,47.5C 21.1614,46.2825 21.8281,44.9492 22.5,43.5C 24.0709,44.3094 25.7376,44.6427 27.5,44.5C 27.5,45.5 27.5,46.5 27.5,47.5C 28.8333,47.5 30.1667,47.5 31.5,47.5C 31.5,48.8333 31.5,50.1667 31.5,51.5C 29.5,51.5 27.5,51.5 25.5,51.5C 25.5,52.8333 25.5,54.1667 25.5,55.5C 27.5,55.5 29.5,55.5 31.5,55.5C 31.5,58.1667 31.5,60.8333 31.5,63.5C 42.1667,63.5 52.8333,63.5 63.5,63.5C 63.5,66.1667 63.5,68.8333 63.5,71.5C 71.111,70.9238 78.4444,71.5905 85.5,73.5 Z"/></g>
<g><path style="opacity:1" fill="#fdfdfe" d="M 84.5,75.5 C 94.5,75.5 104.5,75.5 114.5,75.5C 127.171,75.3334 139.838,75.5001 152.5,76C 141.833,84 131.167,92 120.5,100C 123.311,106.454 125.978,112.954 128.5,119.5C 130.63,125.887 132.963,132.22 135.5,138.5C 134.998,139.521 134.332,139.688 133.5,139C 122.986,131.242 112.653,123.242 102.5,115C 83.0051,103.169 64.3385,90.1689 46.5,76C 59.1623,75.5001 71.8289,75.3334 84.5,75.5 Z"/></g>
<g><path style="opacity:1" fill="#b6ddfc" d="M 76.5,103.5 C 83.5577,106.533 90.2244,110.366 96.5,115C 85.6667,123.167 74.8333,131.333 64,139.5C 67.8289,127.482 71.9955,115.482 76.5,103.5 Z"/></g>
</svg>
