<svg version="1.1" id="Layer_1" xmlns="http://www.w3.org/2000/svg" xmlns:xlink="http://www.w3.org/1999/xlink" x="0px" y="0px"
	 width="100%" viewBox="0 0 1019 127" enable-background="new 0 0 1019 127" xml:space="preserve">
<path fill="#FDFDFD" opacity="1.000000" stroke="none" 
	d="
M758.000000,128.000000 
	C505.333374,128.000000 253.166733,128.000000 1.000068,128.000000 
	C1.000045,85.666702 1.000045,43.333405 1.000023,1.000079 
	C340.666595,1.000053 680.333191,1.000053 1019.999817,1.000026 
	C1019.999878,43.333252 1019.999878,85.666504 1019.999939,127.999878 
	C932.833313,128.000000 845.666687,128.000000 758.000000,128.000000 
M805.194397,78.500015 
	C805.176270,60.346664 805.263855,42.192337 805.095581,24.040380 
	C805.011108,14.928510 798.539001,7.991035 789.511597,6.858105 
	C786.877930,6.527588 784.207886,6.344344 781.554016,6.339257 
	C760.236206,6.298397 738.918091,6.291844 717.600281,6.336203 
	C713.112793,6.345541 708.597656,6.340088 704.144348,6.808158 
	C694.279175,7.845048 687.862061,14.417385 687.789612,24.259535 
	C687.587280,51.736950 687.584961,79.217995 687.803650,106.695221 
	C687.883362,116.713585 695.363831,123.999290 705.324829,124.052200 
	C732.803833,124.198181 760.284607,124.204353 787.763367,124.038719 
	C797.637634,123.979202 804.917175,116.420959 805.111267,106.479111 
	C805.286743,97.488968 805.177917,88.493263 805.194397,78.500015 
M90.348160,72.690781 
	C90.114494,73.409744 89.880829,74.128716 89.357285,75.739609 
	C88.407097,73.270760 87.700798,71.636269 87.142509,69.952698 
	C83.273155,58.284180 79.432167,46.606258 75.587334,34.929623 
	C74.014824,30.153952 70.712029,27.395250 65.726646,27.103731 
	C60.546692,26.800831 56.756897,29.167957 54.666683,33.992191 
	C54.008232,35.511906 53.494503,37.097542 52.969418,38.671314 
	C48.939125,50.750771 44.922363,62.834740 40.632191,75.726257 
	C39.869583,73.567123 39.406437,72.326889 38.991711,71.070671 
	C34.826363,58.453480 30.745298,45.807774 26.477962,33.225224 
	C24.257215,26.677189 21.773731,25.425293 15.129666,27.097601 
	C13.372596,27.539854 11.660282,28.255114 10.016222,29.032763 
	C5.622354,31.111086 3.862712,34.414246 5.526681,39.213955 
	C13.796338,63.067726 21.999718,86.944748 30.372404,110.762268 
	C31.943535,115.231621 35.535374,117.643333 40.320507,117.854828 
	C45.271343,118.073662 48.381157,115.223419 50.528633,111.135658 
	C51.216042,109.827171 51.565876,108.338837 52.047237,106.924980 
	C56.178154,94.791763 60.303814,82.656754 64.846870,69.299690 
	C65.875839,72.065079 66.469261,73.548401 66.983170,75.058784 
	C70.995781,86.851921 74.952271,98.664345 79.015114,110.440109 
	C80.660683,115.209625 84.265923,117.765884 89.207825,117.820877 
	C94.148613,117.875854 98.021126,115.385704 99.653801,110.716194 
	C107.986198,86.885284 116.164085,62.999851 124.242836,39.081749 
	C124.876297,37.206303 124.908760,34.718906 124.219894,32.893539 
	C122.910797,29.424635 114.772141,25.831120 110.414650,26.314522 
	C105.797516,26.826735 104.255203,30.304472 103.028069,34.078766 
	C98.918678,46.717976 94.797241,59.353271 90.348160,72.690781 
M185.036957,117.872154 
	C186.034470,117.914322 187.032043,117.994743 188.029465,117.992683 
	C196.835541,117.974495 199.030609,115.850273 199.054230,107.190880 
	C199.076462,99.034782 199.236832,90.871193 198.957718,82.723877 
	C198.475342,68.642845 189.109238,56.694466 176.608093,53.590363 
	C168.786270,51.648163 161.993393,53.467327 155.746964,60.092522 
	C155.746964,49.826706 155.858429,40.865959 155.712769,31.909397 
	C155.589478,24.328222 152.794037,21.984486 144.563843,22.060228 
	C136.548874,22.133993 134.023422,24.380095 134.009232,31.861574 
	C133.960907,57.329464 133.958069,82.797577 134.012100,108.265442 
	C134.027969,115.742157 136.550827,117.950745 144.611008,117.999069 
	C152.984787,118.049278 155.584381,115.849358 155.720276,108.177177 
	C155.855881,100.522476 155.502075,92.850227 155.903488,85.214088 
	C156.037842,82.658218 157.269623,79.666313 158.996979,77.793503 
	C162.312592,74.198708 166.933762,73.531441 171.443604,75.299507 
	C175.831924,77.019928 177.326553,80.846954 177.318008,85.381119 
	C177.303589,93.037910 177.322006,100.694893 177.362778,108.351601 
	C177.388046,113.099686 178.736206,116.934418 185.036957,117.872154 
M209.714188,85.491570 
	C209.787674,97.257469 215.258438,106.182869 224.522522,112.913528 
	C233.993973,119.794861 244.507446,119.408066 253.838028,112.104523 
	C256.872192,118.804543 262.832764,117.909363 268.447815,117.551537 
	C272.696136,117.280800 275.257172,114.825867 275.275421,110.458862 
	C275.345612,93.645638 275.400574,76.830475 275.161621,60.020309 
	C275.133087,58.010761 273.772858,55.336403 272.161316,54.158394 
	C266.849121,50.275223 256.934784,52.968319 253.636002,58.768646 
	C245.205124,51.497776 235.158752,50.646957 225.742920,56.841423 
	C215.847122,63.351654 209.941956,72.364128 209.714188,85.491570 
M447.256256,45.762749 
	C443.854309,51.225838 440.452362,56.688927 436.817169,62.526562 
	C433.286346,56.880508 430.128906,51.825684 426.965485,46.774624 
	C423.790039,41.704441 420.687408,36.586391 417.410645,31.582451 
	C412.893707,24.684641 409.750336,24.138363 402.557098,28.756901 
	C395.321106,33.402889 394.483948,36.554470 398.917603,43.371647 
	C403.176819,49.920597 407.035736,56.831001 412.023102,62.784603 
	C423.013336,75.903908 428.580353,90.396683 425.854950,107.605919 
	C425.803619,107.930161 425.850098,108.270752 425.858765,108.603508 
	C426.052856,116.055847 428.376953,118.123497 436.595581,118.157219 
	C445.203186,118.192528 447.741364,116.110909 447.870422,108.565071 
	C447.989960,101.575661 447.714417,94.574768 448.008179,87.595589 
	C448.112701,85.112305 448.859528,82.341232 450.199036,80.276169 
	C458.519897,67.447937 467.191742,54.847576 475.534393,42.033100 
	C478.998718,36.711838 477.649139,33.026768 471.420807,28.844427 
	C464.838348,24.424257 461.035889,24.619230 457.303497,30.025984 
	C453.907806,34.945042 450.881165,40.118866 447.256256,45.762749 
M511.310181,51.972721 
	C510.817413,51.888672 510.323914,51.808849 509.832031,51.719959 
	C493.584839,48.783852 476.988525,58.296768 471.555298,73.660721 
	C465.985687,89.410347 472.580719,106.581604 487.342194,114.764557 
	C501.932007,122.852333 520.273804,119.223419 530.543945,106.217087 
	C545.917297,86.747917 536.860840,60.132473 511.310181,51.972721 
M994.740784,53.589424 
	C993.648621,53.198421 992.579651,52.716583 991.460693,52.430199 
	C977.146912,48.766628 965.009949,52.742290 955.597717,63.809555 
	C946.720032,74.248192 945.246643,86.478615 950.904907,98.791122 
	C956.884644,111.803192 967.628601,118.781723 982.111328,118.985435 
	C997.974304,119.208565 1011.644165,108.311852 1015.153625,93.160446 
	C1019.021484,76.461807 1011.684265,61.842621 994.740784,53.589424 
M822.249939,116.447968 
	C823.189270,116.770302 824.108337,117.181976 825.071106,117.401337 
	C836.371155,119.975822 840.735046,116.544342 840.756592,105.088394 
	C840.768799,98.593719 840.674194,92.097343 840.793274,85.604774 
	C840.924194,78.470390 845.247742,74.151108 851.882385,74.280739 
	C858.451660,74.409096 862.151733,78.331963 862.297119,85.641235 
	C862.429565,92.299896 862.298157,98.963379 862.343140,105.624321 
	C862.413940,116.101593 866.235291,119.317673 876.646484,117.736740 
	C882.036926,116.918198 883.994385,114.971771 884.070679,109.545723 
	C884.199524,100.389275 884.449036,91.209106 883.960083,82.075729 
	C883.330261,70.312347 877.970764,60.884045 867.326111,55.449188 
	C857.865051,50.618683 848.669250,51.542542 840.851807,59.635738 
	C838.570618,53.363056 836.259338,52.225468 827.675964,52.784245 
	C821.165344,53.208084 819.048157,55.274071 819.017273,61.764309 
	C818.943481,77.251350 818.874817,92.740761 819.108521,108.224617 
	C819.147888,110.829910 820.709412,113.412216 822.249939,116.447968 
M548.155273,79.458740 
	C548.436157,83.936501 548.303040,88.486290 549.067627,92.879868 
	C552.911255,114.968552 574.123169,123.888382 591.723877,110.957756 
	C594.054199,117.114464 598.769897,119.148430 606.669067,117.610046 
	C610.839783,116.797775 613.215454,114.560577 613.318604,110.216408 
	C613.397644,106.887428 613.444275,103.556892 613.446350,100.227013 
	C613.454224,87.568893 613.535767,74.909668 613.394104,62.253052 
	C613.310791,54.802277 611.275879,52.916157 603.810913,52.563210 
	C602.980652,52.523964 602.144836,52.526463 601.314819,52.570492 
	C593.900330,52.963776 591.941711,54.939560 591.867554,62.362274 
	C591.792664,69.856529 591.976257,77.355324 591.794373,84.846001 
	C591.620911,91.994797 587.277710,96.116631 580.483459,95.994476 
	C573.871155,95.875603 570.141602,91.909042 570.049316,84.660797 
	C569.951782,77.000443 570.118896,69.335823 569.960999,61.677387 
	C569.820679,54.872292 566.968079,52.576897 559.144226,52.529736 
	C551.202881,52.481869 548.450989,54.628029 548.219849,61.483421 
	C548.029236,67.140091 548.164490,72.807747 548.155273,79.458740 
M891.581360,58.505325 
	C889.335266,70.135117 891.505310,73.691483 901.134338,74.203011 
	C901.404297,74.217346 901.657898,74.538582 902.207153,74.913116 
	C902.207153,76.198601 902.206360,77.678230 902.207397,79.157860 
	C902.214294,88.980713 902.097351,98.805771 902.271240,108.625679 
	C902.392700,115.484612 904.940125,117.828903 911.771484,118.045425 
	C912.935242,118.082314 914.104187,118.079102 915.266541,118.017044 
	C921.336792,117.692955 923.721924,115.452751 923.981934,109.446266 
	C924.176208,104.958855 924.067200,100.457840 924.073120,95.962860 
	C924.082642,88.709587 924.075684,81.456291 924.075684,74.171547 
	C941.619141,75.508179 942.485413,72.405952 942.913635,64.718155 
	C943.479126,54.566341 942.228577,53.864326 924.528687,52.907009 
	C923.357849,44.336193 923.424438,44.166553 931.614929,43.579887 
	C936.047546,43.262386 938.956116,41.346394 939.301147,36.737453 
	C939.521790,33.790462 939.418945,30.793905 939.171692,27.843836 
	C938.877319,24.331093 936.456299,22.681067 933.238647,22.073452 
	C916.892761,18.986729 902.799561,30.315645 902.227844,46.997223 
	C902.156799,49.068989 902.218140,51.145290 902.218140,53.219490 
	C901.724609,52.828579 901.231079,52.437668 900.737549,52.046757 
	C897.782043,53.942314 894.826599,55.837872 891.581360,58.505325 
M396.114746,107.386345 
	C401.769318,91.739388 395.926880,80.915138 379.743164,77.125511 
	C375.866333,76.217705 371.901093,75.630608 368.102936,74.479073 
	C366.977905,74.137978 366.284973,72.371681 365.394043,71.258476 
	C366.520142,70.454124 367.729126,68.868492 368.758270,68.977737 
	C373.793152,69.512146 378.864838,70.167007 383.759949,71.418854 
	C388.551666,72.644257 391.319000,71.180870 394.069702,64.830948 
	C396.161469,60.002159 395.433228,57.849770 390.758423,55.592888 
	C381.565918,51.154953 371.890411,50.310875 362.018616,52.377167 
	C349.447571,55.008450 343.852722,63.655273 346.273804,76.300499 
	C347.531372,82.868698 350.686066,88.242683 357.090454,90.881691 
	C361.356903,92.639725 365.882782,93.765793 370.285553,95.196281 
	C372.939880,96.058678 375.580719,96.962433 378.227631,97.847603 
	C378.198242,98.411064 378.168854,98.974518 378.139465,99.537979 
	C376.574493,100.168251 374.890442,101.526665 373.466583,101.293846 
	C368.988434,100.561607 364.321930,99.858879 360.249359,98.002014 
	C351.784088,94.142303 348.852264,94.853470 344.933685,103.167839 
	C342.602234,108.114693 343.409546,110.746529 348.154358,113.429024 
	C360.220062,120.250420 372.956696,120.897896 385.704895,116.280334 
	C389.570251,114.880234 392.502869,110.904915 396.114746,107.386345 
M324.721313,74.515633 
	C334.492401,74.454414 336.501007,72.412224 336.236053,62.792881 
	C336.213165,61.961803 336.137726,61.132198 336.088287,60.301815 
	C335.800171,55.460903 333.091064,53.101788 328.382141,52.974087 
	C324.795044,52.876812 321.203217,52.954769 317.140259,52.954769 
	C317.140259,47.564865 317.160339,42.599907 317.133881,37.635193 
	C317.112854,33.691830 315.003754,31.407209 311.211700,30.841984 
	C308.768799,30.477859 306.233551,30.195328 303.796112,30.439484 
	C297.755829,31.044533 296.001099,33.063381 295.890472,39.094482 
	C295.805908,43.705643 295.873657,48.319595 295.873657,52.915249 
	C286.373840,53.047417 284.857178,54.095276 284.537994,62.005138 
	C284.402710,65.357285 284.526550,69.583115 286.401001,71.900650 
	C288.136261,74.046089 292.365051,74.174759 295.857391,75.309013 
	C295.857391,78.468369 295.839874,82.113457 295.862274,85.758308 
	C295.884796,89.418373 295.804718,93.086540 296.018890,96.736534 
	C296.638000,107.287529 301.282684,113.901367 310.657440,116.332726 
	C315.401245,117.563049 320.516235,117.886826 325.429047,117.702797 
	C327.634064,117.620209 330.722931,115.803421 331.746368,113.885452 
	C336.218475,105.504395 332.202911,98.379585 322.922607,97.612617 
	C319.887085,97.361748 317.602325,96.438057 317.535126,93.076462 
	C317.410126,86.821861 317.499268,80.562965 317.499268,74.034225 
	C319.922516,74.185669 321.902557,74.309410 324.721313,74.515633 
M625.801331,77.500275 
	C625.802124,87.977333 625.674744,98.457199 625.903625,108.929268 
	C625.953918,111.229210 626.572937,114.388092 628.136475,115.618942 
	C632.680786,119.196411 638.183594,118.657684 643.344421,116.874977 
	C647.691895,115.373230 647.482544,111.235703 647.532898,107.607857 
	C647.648071,99.294273 647.498718,90.977112 647.605103,82.663300 
	C647.687500,76.215424 652.365540,72.284737 658.756958,73.174606 
	C660.221069,73.378448 661.637695,73.939857 663.068542,74.362549 
	C668.166260,75.868530 671.062134,74.810478 673.228516,70.053940 
	C674.376282,67.533943 675.197693,64.730347 675.484253,61.983616 
	C675.955017,57.470516 673.816528,54.488407 669.308655,53.056705 
	C660.776978,50.347073 653.714233,52.968113 647.473145,58.871323 
	C644.902100,53.099701 641.914917,51.972294 633.193604,52.856529 
	C628.423462,53.340168 625.923523,55.728668 625.872864,60.536701 
	C625.816895,65.857658 625.822510,71.179260 625.801331,77.500275 
z"/>
<path fill="#21ABFF" opacity="1.000000" stroke="none" 
	d="
M805.194458,79.000015 
	C805.177917,88.493263 805.286743,97.488968 805.111267,106.479111 
	C804.917175,116.420959 797.637634,123.979202 787.763367,124.038719 
	C760.284607,124.204353 732.803833,124.198181 705.324829,124.052200 
	C695.363831,123.999290 687.883362,116.713585 687.803650,106.695221 
	C687.584961,79.217995 687.587280,51.736950 687.789612,24.259535 
	C687.862061,14.417385 694.279175,7.845048 704.144348,6.808158 
	C708.597656,6.340088 713.112793,6.345541 717.600281,6.336203 
	C738.918091,6.291844 760.236206,6.298397 781.554016,6.339257 
	C784.207886,6.344344 786.877930,6.527588 789.511597,6.858105 
	C798.539001,7.991035 805.011108,14.928510 805.095581,24.040380 
	C805.263855,42.192337 805.176270,60.346664 805.194458,79.000015 
M776.989685,110.037560 
	C777.335144,107.927887 777.965881,105.820114 777.979858,103.708252 
	C778.070496,90.043259 778.046204,76.377342 778.019958,62.711803 
	C778.003540,54.150478 773.308472,48.961567 765.690796,48.987221 
	C758.192688,49.012466 753.687195,53.916756 753.641235,62.384163 
	C753.567139,76.049355 753.576233,89.715424 753.637634,103.380730 
	C753.670166,110.617363 756.423279,114.823639 762.017517,116.612923 
	C767.505920,118.368362 772.246948,116.473312 776.989685,110.037560 
M712.064819,105.786316 
	C712.679260,107.138336 713.163147,108.569870 713.930115,109.828964 
	C717.775757,116.142403 725.607849,118.764870 732.619202,116.166550 
	C739.688599,113.546730 743.710083,106.247162 742.313782,98.569595 
	C740.940002,91.015938 735.033936,86.031639 727.381714,85.968132 
	C716.911987,85.881241 711.310608,92.771095 712.064819,105.786316 
M754.366516,40.107273 
	C761.162537,46.053722 769.409851,46.624210 775.636780,41.578560 
	C781.180359,37.086617 782.987854,28.408791 779.689514,22.121294 
	C775.529663,14.191395 765.498291,11.337687 757.882019,15.917535 
	C749.317261,21.067717 747.696289,30.681097 754.366516,40.107273 
z"/>
<path fill="#030303" opacity="1.000000" stroke="none" 
	d="
M90.514282,72.340424 
	C94.797241,59.353271 98.918678,46.717976 103.028069,34.078766 
	C104.255203,30.304472 105.797516,26.826735 110.414650,26.314522 
	C114.772141,25.831120 122.910797,29.424635 124.219894,32.893539 
	C124.908760,34.718906 124.876297,37.206303 124.242836,39.081749 
	C116.164085,62.999851 107.986198,86.885284 99.653801,110.716194 
	C98.021126,115.385704 94.148613,117.875854 89.207825,117.820877 
	C84.265923,117.765884 80.660683,115.209625 79.015114,110.440109 
	C74.952271,98.664345 70.995781,86.851921 66.983170,75.058784 
	C66.469261,73.548401 65.875839,72.065079 64.846870,69.299690 
	C60.303814,82.656754 56.178154,94.791763 52.047237,106.924980 
	C51.565876,108.338837 51.216042,109.827171 50.528633,111.135658 
	C48.381157,115.223419 45.271343,118.073662 40.320507,117.854828 
	C35.535374,117.643333 31.943535,115.231621 30.372404,110.762268 
	C21.999718,86.944748 13.796338,63.067726 5.526681,39.213955 
	C3.862712,34.414246 5.622354,31.111086 10.016222,29.032763 
	C11.660282,28.255114 13.372596,27.539854 15.129666,27.097601 
	C21.773731,25.425293 24.257215,26.677189 26.477962,33.225224 
	C30.745298,45.807774 34.826363,58.453480 38.991711,71.070671 
	C39.406437,72.326889 39.869583,73.567123 40.632191,75.726257 
	C44.922363,62.834740 48.939125,50.750771 52.969418,38.671314 
	C53.494503,37.097542 54.008232,35.511906 54.666683,33.992191 
	C56.756897,29.167957 60.546692,26.800831 65.726646,27.103731 
	C70.712029,27.395250 74.014824,30.153952 75.587334,34.929623 
	C79.432167,46.606258 83.273155,58.284180 87.142509,69.952698 
	C87.700798,71.636269 88.407097,73.270760 89.357285,75.739609 
	C89.880829,74.128716 90.114494,73.409744 90.514282,72.340424 
z"/>
<path fill="#040404" opacity="1.000000" stroke="none" 
	d="
M184.615662,117.816231 
	C178.736206,116.934418 177.388046,113.099686 177.362778,108.351601 
	C177.322006,100.694893 177.303589,93.037910 177.318008,85.381119 
	C177.326553,80.846954 175.831924,77.019928 171.443604,75.299507 
	C166.933762,73.531441 162.312592,74.198708 158.996979,77.793503 
	C157.269623,79.666313 156.037842,82.658218 155.903488,85.214088 
	C155.502075,92.850227 155.855881,100.522476 155.720276,108.177177 
	C155.584381,115.849358 152.984787,118.049278 144.611008,117.999069 
	C136.550827,117.950745 134.027969,115.742157 134.012100,108.265442 
	C133.958069,82.797577 133.960907,57.329464 134.009232,31.861574 
	C134.023422,24.380095 136.548874,22.133993 144.563843,22.060228 
	C152.794037,21.984486 155.589478,24.328222 155.712769,31.909397 
	C155.858429,40.865959 155.746964,49.826706 155.746964,60.092522 
	C161.993393,53.467327 168.786270,51.648163 176.608093,53.590363 
	C189.109238,56.694466 198.475342,68.642845 198.957718,82.723877 
	C199.236832,90.871193 199.076462,99.034782 199.054230,107.190880 
	C199.030609,115.850273 196.835541,117.974495 188.029465,117.992683 
	C187.032043,117.994743 186.034470,117.914322 184.615662,117.816231 
z"/>
<path fill="#020202" opacity="1.000000" stroke="none" 
	d="
M209.714722,85.026382 
	C209.941956,72.364128 215.847122,63.351654 225.742920,56.841423 
	C235.158752,50.646957 245.205124,51.497776 253.636002,58.768646 
	C256.934784,52.968319 266.849121,50.275223 272.161316,54.158394 
	C273.772858,55.336403 275.133087,58.010761 275.161621,60.020309 
	C275.400574,76.830475 275.345612,93.645638 275.275421,110.458862 
	C275.257172,114.825867 272.696136,117.280800 268.447815,117.551537 
	C262.832764,117.909363 256.872192,118.804543 253.838028,112.104523 
	C244.507446,119.408066 233.993973,119.794861 224.522522,112.913528 
	C215.258438,106.182869 209.787674,97.257469 209.714722,85.026382 
M235.423569,76.817642 
	C231.880066,80.185249 230.175888,84.153900 232.062119,88.931938 
	C233.638123,92.924103 236.697189,95.419250 241.021408,95.924004 
	C246.082397,96.514755 249.698593,94.180817 251.947418,89.749268 
	C254.090393,85.526321 252.968842,80.408630 249.328720,77.001877 
	C245.813477,73.711983 241.559006,73.491180 235.423569,76.817642 
z"/>
<path fill="#030303" opacity="1.000000" stroke="none" 
	d="
M447.474060,45.471565 
	C450.881165,40.118866 453.907806,34.945042 457.303497,30.025984 
	C461.035889,24.619230 464.838348,24.424257 471.420807,28.844427 
	C477.649139,33.026768 478.998718,36.711838 475.534393,42.033100 
	C467.191742,54.847576 458.519897,67.447937 450.199036,80.276169 
	C448.859528,82.341232 448.112701,85.112305 448.008179,87.595589 
	C447.714417,94.574768 447.989960,101.575661 447.870422,108.565071 
	C447.741364,116.110909 445.203186,118.192528 436.595581,118.157219 
	C428.376953,118.123497 426.052856,116.055847 425.858765,108.603508 
	C425.850098,108.270752 425.803619,107.930161 425.854950,107.605919 
	C428.580353,90.396683 423.013336,75.903908 412.023102,62.784603 
	C407.035736,56.831001 403.176819,49.920597 398.917603,43.371647 
	C394.483948,36.554470 395.321106,33.402889 402.557098,28.756901 
	C409.750336,24.138363 412.893707,24.684641 417.410645,31.582451 
	C420.687408,36.586391 423.790039,41.704441 426.965485,46.774624 
	C430.128906,51.825684 433.286346,56.880508 436.817169,62.526562 
	C440.452362,56.688927 443.854309,51.225838 447.474060,45.471565 
z"/>
<path fill="#030303" opacity="1.000000" stroke="none" 
	d="
M511.720337,52.037777 
	C536.860840,60.132473 545.917297,86.747917 530.543945,106.217087 
	C520.273804,119.223419 501.932007,122.852333 487.342194,114.764557 
	C472.580719,106.581604 465.985687,89.410347 471.555298,73.660721 
	C476.988525,58.296768 493.584839,48.783852 509.832031,51.719959 
	C510.323914,51.808849 510.817413,51.888672 511.720337,52.037777 
M511.656067,75.717209 
	C510.189758,74.972847 508.792084,74.011314 507.245026,73.522484 
	C501.193573,71.610405 494.048920,75.114639 492.215179,80.762772 
	C489.964600,87.694725 492.987976,94.134239 499.615387,96.524536 
	C504.482910,98.280075 510.766754,96.323036 513.839783,92.094505 
	C517.130676,87.566185 516.501343,81.195564 511.656067,75.717209 
z"/>
<path fill="#030303" opacity="1.000000" stroke="none" 
	d="
M995.095093,53.744755 
	C1011.684265,61.842621 1019.021484,76.461807 1015.153625,93.160446 
	C1011.644165,108.311852 997.974304,119.208565 982.111328,118.985435 
	C967.628601,118.781723 956.884644,111.803192 950.904907,98.791122 
	C945.246643,86.478615 946.720032,74.248192 955.597717,63.809555 
	C965.009949,52.742290 977.146912,48.766628 991.460693,52.430199 
	C992.579651,52.716583 993.648621,53.198421 995.095093,53.744755 
M979.113770,96.939270 
	C980.599060,96.982124 982.106079,97.208580 983.565735,97.035583 
	C989.425232,96.341125 993.695374,91.878456 994.052002,86.238899 
	C994.470032,79.628670 991.522034,75.248558 985.453857,73.463814 
	C979.520691,71.718742 972.829651,74.843712 970.675659,80.365654 
	C967.982849,87.269249 970.707397,93.100517 979.113770,96.939270 
z"/>
<path fill="#030303" opacity="1.000000" stroke="none" 
	d="
M821.908752,116.226555 
	C820.709412,113.412216 819.147888,110.829910 819.108521,108.224617 
	C818.874817,92.740761 818.943481,77.251350 819.017273,61.764309 
	C819.048157,55.274071 821.165344,53.208084 827.675964,52.784245 
	C836.259338,52.225468 838.570618,53.363056 840.851807,59.635738 
	C848.669250,51.542542 857.865051,50.618683 867.326111,55.449188 
	C877.970764,60.884045 883.330261,70.312347 883.960083,82.075729 
	C884.449036,91.209106 884.199524,100.389275 884.070679,109.545723 
	C883.994385,114.971771 882.036926,116.918198 876.646484,117.736740 
	C866.235291,119.317673 862.413940,116.101593 862.343140,105.624321 
	C862.298157,98.963379 862.429565,92.299896 862.297119,85.641235 
	C862.151733,78.331963 858.451660,74.409096 851.882385,74.280739 
	C845.247742,74.151108 840.924194,78.470390 840.793274,85.604774 
	C840.674194,92.097343 840.768799,98.593719 840.756592,105.088394 
	C840.735046,116.544342 836.371155,119.975822 825.071106,117.401337 
	C824.108337,117.181976 823.189270,116.770302 821.908752,116.226555 
z"/>
<path fill="#020202" opacity="1.000000" stroke="none" 
	d="
M548.155273,78.964638 
	C548.164490,72.807747 548.029236,67.140091 548.219849,61.483421 
	C548.450989,54.628029 551.202881,52.481869 559.144226,52.529736 
	C566.968079,52.576897 569.820679,54.872292 569.960999,61.677387 
	C570.118896,69.335823 569.951782,77.000443 570.049316,84.660797 
	C570.141602,91.909042 573.871155,95.875603 580.483459,95.994476 
	C587.277710,96.116631 591.620911,91.994797 591.794373,84.846001 
	C591.976257,77.355324 591.792664,69.856529 591.867554,62.362274 
	C591.941711,54.939560 593.900330,52.963776 601.314819,52.570492 
	C602.144836,52.526463 602.980652,52.523964 603.810913,52.563210 
	C611.275879,52.916157 613.310791,54.802277 613.394104,62.253052 
	C613.535767,74.909668 613.454224,87.568893 613.446350,100.227013 
	C613.444275,103.556892 613.397644,106.887428 613.318604,110.216408 
	C613.215454,114.560577 610.839783,116.797775 606.669067,117.610046 
	C598.769897,119.148430 594.054199,117.114464 591.723877,110.957756 
	C574.123169,123.888382 552.911255,114.968552 549.067627,92.879868 
	C548.303040,88.486290 548.436157,83.936501 548.155273,78.964638 
z"/>
<path fill="#040404" opacity="1.000000" stroke="none" 
	d="
M891.726196,58.119377 
	C894.826599,55.837872 897.782043,53.942314 900.737549,52.046757 
	C901.231079,52.437668 901.724609,52.828579 902.218140,53.219490 
	C902.218140,51.145290 902.156799,49.068989 902.227844,46.997223 
	C902.799561,30.315645 916.892761,18.986729 933.238647,22.073452 
	C936.456299,22.681067 938.877319,24.331093 939.171692,27.843836 
	C939.418945,30.793905 939.521790,33.790462 939.301147,36.737453 
	C938.956116,41.346394 936.047546,43.262386 931.614929,43.579887 
	C923.424438,44.166553 923.357849,44.336193 924.528687,52.907009 
	C942.228577,53.864326 943.479126,54.566341 942.913635,64.718155 
	C942.485413,72.405952 941.619141,75.508179 924.075684,74.171547 
	C924.075684,81.456291 924.082642,88.709587 924.073120,95.962860 
	C924.067200,100.457840 924.176208,104.958855 923.981934,109.446266 
	C923.721924,115.452751 921.336792,117.692955 915.266541,118.017044 
	C914.104187,118.079102 912.935242,118.082314 911.771484,118.045425 
	C904.940125,117.828903 902.392700,115.484612 902.271240,108.625679 
	C902.097351,98.805771 902.214294,88.980713 902.207397,79.157860 
	C902.206360,77.678230 902.207153,76.198601 902.207153,74.913116 
	C901.657898,74.538582 901.404297,74.217346 901.134338,74.203011 
	C891.505310,73.691483 889.335266,70.135117 891.726196,58.119377 
z"/>
<path fill="#040404" opacity="1.000000" stroke="none" 
	d="
M395.988708,107.747742 
	C392.502869,110.904915 389.570251,114.880234 385.704895,116.280334 
	C372.956696,120.897896 360.220062,120.250420 348.154358,113.429024 
	C343.409546,110.746529 342.602234,108.114693 344.933685,103.167839 
	C348.852264,94.853470 351.784088,94.142303 360.249359,98.002014 
	C364.321930,99.858879 368.988434,100.561607 373.466583,101.293846 
	C374.890442,101.526665 376.574493,100.168251 378.139465,99.537979 
	C378.168854,98.974518 378.198242,98.411064 378.227631,97.847603 
	C375.580719,96.962433 372.939880,96.058678 370.285553,95.196281 
	C365.882782,93.765793 361.356903,92.639725 357.090454,90.881691 
	C350.686066,88.242683 347.531372,82.868698 346.273804,76.300499 
	C343.852722,63.655273 349.447571,55.008450 362.018616,52.377167 
	C371.890411,50.310875 381.565918,51.154953 390.758423,55.592888 
	C395.433228,57.849770 396.161469,60.002159 394.069702,64.830948 
	C391.319000,71.180870 388.551666,72.644257 383.759949,71.418854 
	C378.864838,70.167007 373.793152,69.512146 368.758270,68.977737 
	C367.729126,68.868492 366.520142,70.454124 365.394043,71.258469 
	C366.284973,72.371681 366.977905,74.137978 368.102936,74.479073 
	C371.901093,75.630608 375.866333,76.217705 379.743164,77.125511 
	C395.926880,80.915138 401.769318,91.739388 395.988708,107.747742 
z"/>
<path fill="#020202" opacity="1.000000" stroke="none" 
	d="
M324.301941,74.474396 
	C321.902557,74.309410 319.922516,74.185669 317.499268,74.034225 
	C317.499268,80.562965 317.410126,86.821861 317.535126,93.076462 
	C317.602325,96.438057 319.887085,97.361748 322.922607,97.612617 
	C332.202911,98.379585 336.218475,105.504395 331.746368,113.885452 
	C330.722931,115.803421 327.634064,117.620209 325.429047,117.702797 
	C320.516235,117.886826 315.401245,117.563049 310.657440,116.332726 
	C301.282684,113.901367 296.638000,107.287529 296.018890,96.736534 
	C295.804718,93.086540 295.884796,89.418373 295.862274,85.758308 
	C295.839874,82.113457 295.857391,78.468369 295.857391,75.309013 
	C292.365051,74.174759 288.136261,74.046089 286.401001,71.900650 
	C284.526550,69.583115 284.402710,65.357285 284.537994,62.005138 
	C284.857178,54.095276 286.373840,53.047417 295.873657,52.915249 
	C295.873657,48.319595 295.805908,43.705643 295.890472,39.094482 
	C296.001099,33.063381 297.755829,31.044533 303.796112,30.439484 
	C306.233551,30.195328 308.768799,30.477859 311.211700,30.841984 
	C315.003754,31.407209 317.112854,33.691830 317.133881,37.635193 
	C317.160339,42.599907 317.140259,47.564865 317.140259,52.954769 
	C321.203217,52.954769 324.795044,52.876812 328.382141,52.974087 
	C333.091064,53.101788 335.800171,55.460903 336.088287,60.301815 
	C336.137726,61.132198 336.213165,61.961803 336.236053,62.792881 
	C336.501007,72.412224 334.492401,74.454414 324.301941,74.474396 
z"/>
<path fill="#040404" opacity="1.000000" stroke="none" 
	d="
M625.801331,77.000427 
	C625.822510,71.179260 625.816895,65.857658 625.872864,60.536701 
	C625.923523,55.728668 628.423462,53.340168 633.193604,52.856529 
	C641.914917,51.972294 644.902100,53.099701 647.473145,58.871323 
	C653.714233,52.968113 660.776978,50.347073 669.308655,53.056705 
	C673.816528,54.488407 675.955017,57.470516 675.484253,61.983616 
	C675.197693,64.730347 674.376282,67.533943 673.228516,70.053940 
	C671.062134,74.810478 668.166260,75.868530 663.068542,74.362549 
	C661.637695,73.939857 660.221069,73.378448 658.756958,73.174606 
	C652.365540,72.284737 647.687500,76.215424 647.605103,82.663300 
	C647.498718,90.977112 647.648071,99.294273 647.532898,107.607857 
	C647.482544,111.235703 647.691895,115.373230 643.344421,116.874977 
	C638.183594,118.657684 632.680786,119.196411 628.136475,115.618942 
	C626.572937,114.388092 625.953918,111.229210 625.903625,108.929268 
	C625.674744,98.457199 625.802124,87.977333 625.801331,77.000427 
z"/>
<path fill="#FEFFFF" opacity="1.000000" stroke="none" 
	d="
M776.822876,110.399643 
	C772.246948,116.473312 767.505920,118.368362 762.017517,116.612923 
	C756.423279,114.823639 753.670166,110.617363 753.637634,103.380730 
	C753.576233,89.715424 753.567139,76.049355 753.641235,62.384163 
	C753.687195,53.916756 758.192688,49.012466 765.690796,48.987221 
	C773.308472,48.961567 778.003540,54.150478 778.019958,62.711803 
	C778.046204,76.377342 778.070496,90.043259 777.979858,103.708252 
	C777.965881,105.820114 777.335144,107.927887 776.822876,110.399643 
z"/>
<path fill="#FCFEFF" opacity="1.000000" stroke="none" 
	d="
M712.010498,105.364136 
	C711.310608,92.771095 716.911987,85.881241 727.381714,85.968132 
	C735.033936,86.031639 740.940002,91.015938 742.313782,98.569595 
	C743.710083,106.247162 739.688599,113.546730 732.619202,116.166550 
	C725.607849,118.764870 717.775757,116.142403 713.930115,109.828964 
	C713.163147,108.569870 712.679260,107.138336 712.010498,105.364136 
z"/>
<path fill="#FCFEFF" opacity="1.000000" stroke="none" 
	d="
M754.133179,39.820831 
	C747.696289,30.681097 749.317261,21.067717 757.882019,15.917535 
	C765.498291,11.337687 775.529663,14.191395 779.689514,22.121294 
	C782.987854,28.408791 781.180359,37.086617 775.636780,41.578560 
	C769.409851,46.624210 761.162537,46.053722 754.133179,39.820831 
z"/>
<path fill="#F8F8F8" opacity="1.000000" stroke="none" 
	d="
M235.703125,76.563431 
	C241.559006,73.491180 245.813477,73.711983 249.328720,77.001877 
	C252.968842,80.408630 254.090393,85.526321 251.947418,89.749268 
	C249.698593,94.180817 246.082397,96.514755 241.021408,95.924004 
	C236.697189,95.419250 233.638123,92.924103 232.062119,88.931938 
	C230.175888,84.153900 231.880066,80.185249 235.703125,76.563431 
z"/>
<path fill="#FAFAFA" opacity="1.000000" stroke="none" 
	d="
M511.961578,75.945786 
	C516.501343,81.195564 517.130676,87.566185 513.839783,92.094505 
	C510.766754,96.323036 504.482910,98.280075 499.615387,96.524536 
	C492.987976,94.134239 489.964600,87.694725 492.215179,80.762772 
	C494.048920,75.114639 501.193573,71.610405 507.245026,73.522484 
	C508.792084,74.011314 510.189758,74.972847 511.961578,75.945786 
z"/>
<path fill="#FAFAFA" opacity="1.000000" stroke="none" 
	d="
M978.719971,96.839226 
	C970.707397,93.100517 967.982849,87.269249 970.675659,80.365654 
	C972.829651,74.843712 979.520691,71.718742 985.453857,73.463814 
	C991.522034,75.248558 994.470032,79.628670 994.052002,86.238899 
	C993.695374,91.878456 989.425232,96.341125 983.565735,97.035583 
	C982.106079,97.208580 980.599060,96.982124 978.719971,96.839226 
z"/>
</svg>